<svg xmlns="http://www.w3.org/2000/svg" viewBox="0 0 64 64"><title>add_employee</title><g id="Men"><path d="M51.25,44c0-.79-.12-1.88-.26-3.17-.18-1.62-.38-2.79-.49-3.39a13.59,13.59,0,0,0-1.1-4,8.88,8.88,0,0,0-2.46-2.07c-1-.67-1.61-1.07-2.88-1.84-1.88-1.13-2.39-1.34-3-1.44a3.57,3.57,0,0,0-1.78,0c-.73.22-.89.66-1.95,1.61a9.36,9.36,0,0,1-2.78,1.81A7.48,7.48,0,0,1,32,32a8.14,8.14,0,0,1-2.69-.44,8.61,8.61,0,0,1-3.25-1.51c-1.2-1-1.29-1.72-2.25-2A3.57,3.57,0,0,0,22,28a9.59,9.59,0,0,0-3,1.44c-1.27.77-1.91,1.14-2.88,1.84a9.92,9.92,0,0,0-2.45,2.07,12.94,12.94,0,0,0-1.11,4c-.41,2.37-.74,5.38-1,8.18-.23,2.61-.44,5.05-.54,6.65-.3,4.21,0,5.08.31,5.68,1.14,2,3.55,2,7.45,2.14,1.34,0,24.21,0,25.55,0,3.93-.14,6.34-.14,7.45-2.14a3.11,3.11,0,0,0,.14-.28,4.44,4.44,0,0,0,.27-1.5" style="fill:none;stroke:#fff;stroke-miterlimit:10;stroke-width:3px"/><path d="M53.32,61.93a10.15,10.15,0,0,1-3.32.56A9.49,9.49,0,1,1,59.78,53a9.51,9.51,0,0,1-6.46,8.93" style="fill:#149546;stroke:#149546;stroke-miterlimit:10;stroke-width:3.5999999999999996px"/><path d="M31.71,25.33h.12a7.88,7.88,0,0,0,3.48-.75,6.85,6.85,0,0,0,3-3.37,17.44,17.44,0,0,0,1.11-5.61,35.08,35.08,0,0,0,.12-5.52,9,9,0,0,0-.59-2.81A7.24,7.24,0,0,0,36.7,4.43a8,8,0,0,0-10,0A7.24,7.24,0,0,0,24.5,7.27a9.27,9.27,0,0,0-.59,2.81A36.32,36.32,0,0,0,24,15.6a17.18,17.18,0,0,0,1.12,5.61,6.75,6.75,0,0,0,3,3.37A7.88,7.88,0,0,0,31.71,25.33Z" style="fill:none;stroke:#fff;stroke-miterlimit:10;stroke-width:3px"/><line x1="44" y1="53" x2="56" y2="53" style="fill:none;stroke:#fff;stroke-miterlimit:10;stroke-width:3px"/><line x1="50" y1="59" x2="50" y2="47" style="fill:none;stroke:#fff;stroke-miterlimit:10;stroke-width:3px"/></g></svg>