<svg id="Icon" xmlns="http://www.w3.org/2000/svg" viewBox="0 0 192 192"><title>Maternity</title><path d="M32.12,68A64.21,64.21,0,0,1,96,8h0a64.25,64.25,0,0,1,61.9,47.77" style="fill:none;stroke:#fff;stroke-miterlimit:10;stroke-width:8px"/><path d="M68,160s6-26.24,28-36c13-5.77,33.45-13.64,48-28.56a58,58,0,0,0,8.07-9.53,39.54,39.54,0,0,0,6.36-15.54,37.58,37.58,0,0,0-.52-14.6" style="fill:none;stroke:#fff;stroke-linecap:round;stroke-miterlimit:10;stroke-width:8px"/><path d="M76.19,115.18c-1.78-1.42-4.58-3.57-8.19-6-1.61-1.07-3.37-2.19-11.5-6.89-7.37-4.26-9.32-5.31-12.81-7.7S38.46,91,37,89.32a22.27,22.27,0,0,1-5-10.27v41a64,64,0,0,0,128,0V101.12" style="fill:none;stroke:#fff;stroke-linecap:round;stroke-linejoin:round;stroke-width:8px"/><path d="M109,38.75a32,32,0,0,1,18.12,21.79,7.38,7.38,0,0,1,.82,0,7.5,7.5,0,0,1,0,15h0a6.49,6.49,0,0,1-.77,0,32,32,0,0,1-60.77,4.63,32.61,32.61,0,0,1-1.28-3.8,7.64,7.64,0,0,1-1.08.07,7.5,7.5,0,0,1,0-15c.23,0,.46,0,.68,0A32,32,0,0,1,96,36" style="fill:none;stroke:#fff;stroke-linecap:round;stroke-linejoin:round;stroke-width:8px"/><path d="M75.33,92.43A17.68,17.68,0,0,0,68,96a18,18,0,0,0-6,9.55" style="fill:none;stroke:#fff;stroke-linecap:round;stroke-linejoin:round;stroke-width:8px"/><path d="M117.36,92.43A17.66,17.66,0,0,1,124.68,96a18,18,0,0,1,6,9.55" style="fill:none;stroke:#fff;stroke-linecap:round;stroke-linejoin:round;stroke-width:8px"/><circle cx="84" cy="68" r="4" style="fill:#fff;stroke:#fff;stroke-miterlimit:10;stroke-width:4px"/><circle cx="108" cy="68" r="4" style="fill:#fff;stroke:#fff;stroke-miterlimit:10;stroke-width:4px"/><circle cx="95.97" cy="80" r="4" style="fill:#fff;stroke:#fff;stroke-miterlimit:10;stroke-width:4px"/><path d="M97.82,51.8a8.06,8.06,0,0,0,6.25-5.43,8,8,0,0,0-1.7-7.83A8.33,8.33,0,0,0,96,36" style="fill:none;stroke:#fff;stroke-linecap:round;stroke-linejoin:round;stroke-width:8px"/></svg>