<svg xmlns="http://www.w3.org/2000/svg" viewBox="0 0 48.67 61.38"><title>Ресурс 27</title><g id="Шар_2" data-name="Шар 2"><g id="pdf"><path d="M4.67,32V6.62A5.22,5.22,0,0,1,9.9,1.38H28.5c0,3-.06,12.8-.06,12.8A5.57,5.57,0,0,0,33.71,20l13.62.06V54.82a5.22,5.22,0,0,1-5.23,5.23H9.9a5.22,5.22,0,0,1-5.23-5.23V51.46" style="fill:none;stroke:#fff;stroke-miterlimit:10;stroke-width:2.66666666666667px"/><rect x="1" y="31.95" width="26" height="19.52" rx="5" style="fill:none;stroke:#fff;stroke-linecap:round;stroke-miterlimit:10;stroke-width:2px"/><path d="M5.75,37.64h1v7.62h-1Zm.5,3.65H8.51a1,1,0,0,0,.56-.16,1.09,1.09,0,0,0,.38-.46,1.9,1.9,0,0,0,0-1.38,1,1,0,0,0-.38-.46,1,1,0,0,0-.56-.17H6.25v-1H8.48a2.14,2.14,0,0,1,1.11.29,2,2,0,0,1,.74.82A2.71,2.71,0,0,1,10.6,40a2.61,2.61,0,0,1-.27,1.22,1.85,1.85,0,0,1-.74.82,2.14,2.14,0,0,1-1.11.29H6.25Z" style="fill:#fff;stroke:#fff;stroke-miterlimit:10;stroke-width:0.2561505138874054px"/><path d="M11.93,37.64h1v7.62h-1Zm.67,6.61h1.59a1.62,1.62,0,0,0,1.21-.44,1.67,1.67,0,0,0,.43-1.24V40.33a1.66,1.66,0,0,0-.43-1.23,1.62,1.62,0,0,0-1.21-.44H12.6v-1h1.57a3.13,3.13,0,0,1,1.45.32,2.17,2.17,0,0,1,.91.94,3.19,3.19,0,0,1,.32,1.47v2.16A3.2,3.2,0,0,1,16.53,44a2.07,2.07,0,0,1-.92.93,3,3,0,0,1-1.45.32H12.6Z" style="fill:#fff;stroke:#fff;stroke-miterlimit:10;stroke-width:0.2561505138874054px"/><path d="M18.45,37.64h1v7.62h-1Zm.48,0h3.95v1H18.93Zm0,3.4h3.42v1H18.93Z" style="fill:#fff;stroke:#fff;stroke-miterlimit:10;stroke-width:0.2561505138874054px"/><path d="M29.08.71,48,19.48" style="fill:none;stroke:#fff;stroke-linejoin:bevel;stroke-width:2px"/><path d="M29.21,4.55a24.56,24.56,0,0,0,.28,5.21c.35,2.09,1,4.05-.35,5.89l2.74.36c-.25-1.84.38-3.55.82-5.3.11-.46.48-3,.43-3H31.61c.85.4,1.87,2.71,2.6,3.5,1.16,1.27,2.52,2.33,3.79,3.49a32.11,32.11,0,0,1,3.31,3.78A3.26,3.26,0,0,0,44.18,20a1.52,1.52,0,0,0,1.5-1.5c-.33-3.9-3.6-3.23-6.39-2.53-1.88.48-3.58-.62-5.46-.31-.45.07-1.12.34-1.17.3-.75-.67,2-3.46,2.45-4L32.55,11c.06,1.46-.31,3.81.78,5s3.11.81,4.47.85a1.51,1.51,0,0,0,.76-2.79,5.19,5.19,0,0,1-1.76-1.63c-1.12-1.52-3.66-.14-2.59,1.51a16.72,16.72,0,0,0,5.35,5.3c1.64,1,3.15-1.57,1.51-2.59a13.24,13.24,0,0,1-4.27-4.22l-2.59,1.51A10.43,10.43,0,0,0,37,16.65l.76-2.8c.12,0-2.43.09-2.11.29-.28-.18-.13-2.88-.14-3.17A1.52,1.52,0,0,0,33,9.9c-1.79,1.89-5.58,7-1.79,9a3,3,0,0,0,1.73.25c.6-.09,1.21-.56,1.83-.57a10.33,10.33,0,0,1,1.88.4,7.27,7.27,0,0,0,2.71.06c.35-.07,3.27-1.26,3.33-.56l1.5-1.5c-.51,0-2.26-2.69-2.62-3.06-1-1.06-2.15-2-3.24-3a16.54,16.54,0,0,1-3.18-3.45c-.6-1-.87-2-2-2.43-1.88-.71-2.64,1-2.91,2.52-.54,3.1-1.67,6-1.23,9.15.2,1.44,2.08,1.24,2.74.36,2.69-3.57.28-8.59.48-12.62.09-1.93-2.91-1.92-3,0Z" style="fill:#fff"/><path d="M34.83,14.75c-.83.28-.55-5.67-.65-6.07-.51-2.14-2.31-3.74-2.88-6C30.82.8,28,1.6,28.4,3.47c.79,3.61,1.27,7.48,2.43,11a6,6,0,0,0,1.32,2.42c.63.63,1.81.67,2.33,1.2l-.24-1.82a4.08,4.08,0,0,0-.31,3.33,1.52,1.52,0,0,0,1.85,1.05A15.89,15.89,0,0,1,45.3,20c1.88.46,2.68-2.43.8-2.89a18.69,18.69,0,0,0-11.12.6l1.84,1v-1A1.56,1.56,0,0,0,36.6,16c-.57-.58-1-.46-1.6-.85-1.3-.84-1.4-1.82-1.71-3.23-.68-3.07-1.33-6.14-2-9.2l-2.9.79a20.47,20.47,0,0,0,2,4.53c1.06,2,.52,4,.94,6.15s1.7,4.36,4.27,3.49c1.82-.61,1-3.51-.8-2.89Z" style="fill:#fff"/></g></g></svg>