<svg id="Icon" xmlns="http://www.w3.org/2000/svg" viewBox="0 0 192 192"><title>Retired</title><line x1="55.5" y1="31.5" x2="135.5" y2="31.5" style="fill:none;stroke:#fff;stroke-linecap:round;stroke-miterlimit:10;stroke-width:8px"/><line x1="55.5" y1="49.5" x2="135.5" y2="49.5" style="fill:none;stroke:#fff;stroke-linecap:round;stroke-miterlimit:10;stroke-width:8px"/><line x1="55.5" y1="68.44" x2="106.5" y2="68.44" style="fill:none;stroke:#fff;stroke-linecap:round;stroke-miterlimit:10;stroke-width:8px"/><path d="M31.75,28.74v95L68,96l27.75,27.8,28.25-28L159.75,124V17.75a10,10,0,0,0-10-10h-108a10,10,0,0,0-10,10Z" style="fill:none;stroke:#fff;stroke-linecap:round;stroke-width:8px"/><path d="M159.75,162.82v10.93a10,10,0,0,1-10,10h-108a10,10,0,0,1-10-10V152.14L32,152l36.25-27.7L96,152.05,124.25,124l35.5,28.05v10.77Z" style="fill:none;stroke:#fff;stroke-miterlimit:10;stroke-width:8px"/></svg>