<svg id="umbrella" xmlns="http://www.w3.org/2000/svg" viewBox="0 0 64 64"><title>Vacations</title><path d="M59.65,59.91l-4.87-8.39L8.61,51.29,4.35,59.75" style="fill:none;stroke:#fff;stroke-linecap:round;stroke-linejoin:round;stroke-width:2.6670000000000003px"/><line x1="18.94" y1="59.78" x2="23.42" y2="51.79" style="fill:none;stroke:#fff;stroke-linecap:round;stroke-linejoin:round;stroke-width:2.6670000000000003px"/><line x1="26.63" y1="45.1" x2="37.57" y2="24.46" style="fill:none;stroke:#fff;stroke-linecap:round;stroke-linejoin:round;stroke-width:2.6670000000000003px"/><line x1="19.1" y1="51.28" x2="7.19" y2="34.78" style="fill:none;stroke:#fff;stroke-linecap:round;stroke-linejoin:round;stroke-width:2.6670000000000003px"/><path d="M11,29.06,22.5,45h9.18L56.4,45" style="fill:none;stroke:#fff;stroke-linecap:round;stroke-linejoin:round;stroke-width:2.6670000000000003px"/><path d="M17.71,10.3a.31.31,0,0,1-.14-.13C17.33,9.62,19.71,8,20.5,7.69A24.75,24.75,0,0,1,34.67,6.07,30,30,0,0,1,41.12,8.4c.66.29,2.13.95,2.05,1.27s-1,.07-2.48.26A15.4,15.4,0,0,0,33,13.47a17.81,17.81,0,0,0-3,3.17c-.42.59-1.08,2.91-1.77,3-.54.09-1-1.23-1.22-1.57a15.41,15.41,0,0,0-2.2-3A23.25,23.25,0,0,0,17.71,10.3Z" style="fill:none;stroke:#fff;stroke-linecap:round;stroke-miterlimit:10;stroke-width:2.6670000000000003px"/><path d="M59.42,33.92c.47-.25.28-1.43.19-2.2a20.9,20.9,0,0,0-1-4.74c-1.24-3.13-2.91-7.65-6.79-11.45a29.14,29.14,0,0,0-4-3.26c-1.33-.89-2.3-1.36-2.38-1.23a13.19,13.19,0,0,0,1,2.11,15.33,15.33,0,0,1,.78,2.92,23.4,23.4,0,0,1,.32,6.14,17.15,17.15,0,0,1-1,5.3c-.36.91-.67,1.39-.43,1.87.38.77,1.61.38,4.93.86a14.64,14.64,0,0,1,5.16,1.65l.41.26C58.14,33.14,58.91,34.2,59.42,33.92Z" style="fill:none;stroke:#fff;stroke-linecap:round;stroke-miterlimit:10;stroke-width:2.6670000000000003px"/><line x1="44.22" y1="10.04" x2="45.22" y2="8.39" style="fill:none;stroke:#fff;stroke-linecap:round;stroke-miterlimit:10;stroke-width:2.6670000000000003px"/><path d="M28.27,19.67A24.8,24.8,0,0,1,38.16,23c3.08,1.7,5.3,4.29,8,6.44" style="fill:none;stroke:#fff;stroke-linecap:round;stroke-miterlimit:10;stroke-width:2.6670000000000003px"/></svg>