<svg xmlns="http://www.w3.org/2000/svg" viewBox="0 0 64 64"><title>umbrella</title><g id="umbrella"><path d="M59.65,59.91l-4.87-8.39L8.61,51.29,4.35,59.75" style="fill:none;stroke:#fff;stroke-linecap:round;stroke-linejoin:round;stroke-width:2.89875704745961px"/><line x1="18.94" y1="59.78" x2="23.42" y2="51.79" style="fill:none;stroke:#fff;stroke-linecap:round;stroke-linejoin:round;stroke-width:2.89875704745961px"/><line x1="26.63" y1="45.1" x2="38.23" y2="24.1" style="fill:none;stroke:#fff;stroke-linecap:round;stroke-linejoin:round;stroke-width:3px"/><line x1="19.1" y1="51.28" x2="7.19" y2="34.78" style="fill:none;stroke:#fff;stroke-linecap:round;stroke-linejoin:round;stroke-width:3px"/><path d="M11,29.06,22.5,45h9.18L56.4,45" style="fill:none;stroke:#fff;stroke-linecap:round;stroke-linejoin:round;stroke-width:3px"/><path d="M20.13,9.88a14.23,14.23,0,0,1,3.41-2.71c5-2.82,10.4-2.79,15.6-1.4A39.85,39.85,0,0,1,45.8,8.26c.24.11,2.42,1,2.27,1.42-.08.24-1.32-.14-1.49-.16a10.68,10.68,0,0,0-3.29.07,10.25,10.25,0,0,0-6,3.58,25,25,0,0,0-2.55,3.56c-.4.64-.78,1.3-1.17,1.95a13.5,13.5,0,0,0-1.05,1.52,28.29,28.29,0,0,0-1-3.1,13.15,13.15,0,0,0-1.48-3,8.66,8.66,0,0,0-3.67-2.75A15.37,15.37,0,0,0,20.13,9.88Z" style="fill:none;stroke:#fff;stroke-linecap:round;stroke-linejoin:round;stroke-width:3px"/><path d="M32.55,20.2c2.76-1.06,6-1.55,8.6.17s3.48,4.93,3.23,7.87" style="fill:none;stroke:#fff;stroke-linecap:round;stroke-linejoin:round;stroke-width:3px"/><path d="M57.57,35.73a18.11,18.11,0,0,0,1.08-4.27c1-7.94-3.63-14.31-5.44-16.81a24.68,24.68,0,0,0-2.68-3c-.36-.35-2.25-2.21-2.52-1.95-.1.11.11.5.41,1.19A8.91,8.91,0,0,1,49.54,14a11.35,11.35,0,0,1-.9,7,27.17,27.17,0,0,1-2.11,3.81c-.41.63-.82,1.25-1.24,1.87a14.28,14.28,0,0,1-.91,1.59,21.87,21.87,0,0,1,3-.27,11.05,11.05,0,0,1,3,.19,7.83,7.83,0,0,1,3.64,2.34A15.24,15.24,0,0,1,57.57,35.73Z" style="fill:none;stroke:#fff;stroke-linecap:round;stroke-linejoin:round;stroke-width:2.9020346403122px"/><line x1="48.07" y1="9.68" x2="50.12" y2="6.71" style="fill:none;stroke:#fff;stroke-linecap:round;stroke-linejoin:round;stroke-width:3px"/></g></svg>