<?xml version="1.0" encoding="utf-8"?>
<!-- Generator: Adobe Illustrator 23.0.1, SVG Export Plug-In . SVG Version: 6.00 Build 0)  -->
<svg version="1.1" xmlns="http://www.w3.org/2000/svg" xmlns:xlink="http://www.w3.org/1999/xlink" x="0px" y="0px"
	 viewBox="0 0 192 192" style="enable-background:new 0 0 192 192;" xml:space="preserve">
<style type="text/css">
	.st0{fill:#157C15;stroke:#7F1500;stroke-miterlimit:10;}
	.st1{fill:#E2274B;stroke:#7F1500;stroke-width:1.0026;stroke-miterlimit:10;}
	.st2{fill:#FFAA00;}
	.st3{display:none;}
	.st4{display:inline;fill:none;stroke:#7D7D7D;stroke-width:0.25;stroke-miterlimit:10;}
	.st5{display:inline;fill:none;stroke:#000000;stroke-miterlimit:10;}
	.st6{display:inline;fill:none;stroke:#000000;stroke-width:4;stroke-miterlimit:10;}
	.st7{fill:none;stroke:#FFFFFF;stroke-width:4;stroke-miterlimit:10;}
	.st8{fill:none;stroke:#FFFFFF;stroke-width:4;stroke-linecap:round;stroke-miterlimit:10;}
	.st9{fill:#1C9ED1;stroke:#FFFFFF;stroke-width:4;stroke-miterlimit:10;}
	.st10{fill:#FF0000;stroke:#FFFFFF;stroke-width:4;stroke-miterlimit:10;}
	.st11{fill:#FFFF00;}
	.st12{fill:none;stroke:#FFFFFF;stroke-width:4.7541;stroke-linecap:round;stroke-miterlimit:10;}
	.st13{fill:none;stroke:#FFFFFF;stroke-width:4;stroke-linecap:round;stroke-linejoin:round;stroke-miterlimit:10;}
	.st14{fill:none;stroke:#FFFFFF;stroke-width:5.3193;stroke-linecap:round;stroke-linejoin:round;stroke-miterlimit:10;}
	.st15{fill:#FFFFFF;stroke:#FFFFFF;stroke-miterlimit:10;}
</style>
<g id="Шар_3">
	<rect class="st0" width="191.5" height="191.5"/>
</g>
<g id="Шар_1" class="st3">
	<line class="st4" x1="96" y1="0" x2="96" y2="192"/>
	<line class="st4" x1="192" y1="96" x2="0" y2="96"/>
	<circle class="st4" cx="96" cy="96" r="88"/>
	<path class="st4" d="M172,160H20c-6.6,0-12-5.4-12-12V44c0-6.6,5.4-12,12-12h152c6.6,0,12,5.4,12,12v104
		C184,154.6,178.6,160,172,160z"/>
	<path class="st4" d="M160,20v152c0,6.6-5.4,12-12,12H44c-6.6,0-12-5.4-12-12V20c0-6.6,5.4-12,12-12h104C154.6,8,160,13.4,160,20z"
		/>
	<path class="st4" d="M160,172H32c-6.6,0-12-5.4-12-12V32c0-6.6,5.4-12,12-12h128c6.6,0,12,5.4,12,12v128
		C172,166.6,166.6,172,160,172z"/>
	<line class="st4" x1="0" y1="192" x2="192" y2="0"/>
	<line class="st4" x1="0" y1="0" x2="192" y2="192"/>
	<circle class="st4" cx="96" cy="96" r="40"/>
	<line class="st4" x1="0" y1="68" x2="192" y2="68"/>
	<line class="st4" x1="0" y1="124" x2="192" y2="124"/>
	<line class="st4" x1="124" y1="0" x2="124" y2="192"/>
	<line class="st4" x1="68" y1="0" x2="68" y2="192"/>
</g>
<g id="Icon">
	<polyline class="st9" points="111.3,145.35 111.3,171.5 123.55,159.25 136.3,171.5 136.3,145.35 	"/>
	<circle class="st10" cx="123.8" cy="123.7" r="25"/>
	<circle class="st11" cx="123.8" cy="123.8" r="15"/>
	<line class="st12" x1="55.7" y1="32" x2="135.52" y2="32"/>
	<line class="st12" x1="55.56" y1="67.7" x2="135.47" y2="67.7"/>
	<line class="st12" x1="55.66" y1="49.85" x2="135.56" y2="49.85"/>
	<line class="st12" x1="55.56" y1="87.03" x2="106.85" y2="87.03"/>
	<rect x="32" y="8" class="st7" width="128" height="176"/>
</g>
</svg>
