<svg xmlns="http://www.w3.org/2000/svg" viewBox="0 0 64 64"><title>all_employee</title><g id="Men"><path d="M32,27.16h.1a6.18,6.18,0,0,0,2.78-.59,5.45,5.45,0,0,0,2.37-2.7,13.63,13.63,0,0,0,.89-4.48,28.38,28.38,0,0,0,.1-4.42,7.17,7.17,0,0,0-.47-2.25A5.73,5.73,0,0,0,36,10.45a6.35,6.35,0,0,0-8,0,5.73,5.73,0,0,0-1.78,2.27A7.46,7.46,0,0,0,25.75,15a28.38,28.38,0,0,0,.1,4.42,13.89,13.89,0,0,0,.89,4.48,5.42,5.42,0,0,0,2.38,2.7A6.27,6.27,0,0,0,32,27.16Z" style="fill:none;stroke:#fff;stroke-miterlimit:10;stroke-width:3px"/><path d="M24.42,29.25c-.36-.24-.7-.44-1.23-.76a5.67,5.67,0,0,0-1.75-.84,2.07,2.07,0,0,0-1.05,0c-.56.17-.61.6-1.32,1.17a4.84,4.84,0,0,1-1.9.89,4.93,4.93,0,0,1-3.16,0,5,5,0,0,1-1.9-.89c-.7-.57-.76-1-1.32-1.17a2,2,0,0,0-1,0A5.47,5.47,0,0,0,8,28.49c-.75.45-1.13.67-1.7,1.08a6,6,0,0,0-1.43,1.21,7.66,7.66,0,0,0-.65,2.35c-.24,1.39-.44,3.16-.59,4.8s-.26,3-.32,3.9c-.17,2.46,0,3,.18,3.33.67,1.17,2.09,1.17,4.37,1.25h7.73" style="fill:none;stroke:#fff;stroke-miterlimit:10;stroke-width:2px"/><path d="M15.34,26.06h.07a4.6,4.6,0,0,0,2-.44,4,4,0,0,0,1.74-2,9.82,9.82,0,0,0,.65-3.28,20.63,20.63,0,0,0,.07-3.24,5.17,5.17,0,0,0-.34-1.65,4.23,4.23,0,0,0-1.3-1.66,4.4,4.4,0,0,0-2.93-1,4.36,4.36,0,0,0-2.92,1,4.25,4.25,0,0,0-1.31,1.66,5.45,5.45,0,0,0-.34,1.65,20.63,20.63,0,0,0,.07,3.24,10.07,10.07,0,0,0,.65,3.28,4,4,0,0,0,1.74,2A4.79,4.79,0,0,0,15.34,26.06Z" style="fill:none;stroke:#fff;stroke-miterlimit:10;stroke-width:2px"/><path d="M49,46.42h7.73c2.29-.08,3.7-.08,4.37-1.25.2-.36.36-.87.18-3.33-.06-.94-.18-2.37-.32-3.9s-.35-3.41-.59-4.8a7.66,7.66,0,0,0-.65-2.35,6,6,0,0,0-1.43-1.21c-.57-.41-.95-.63-1.69-1.08a5.57,5.57,0,0,0-1.76-.84,2,2,0,0,0-1,0c-.56.17-.62.6-1.32,1.17A6.75,6.75,0,0,1,49,30a4.88,4.88,0,0,1-1.58-.26,4.9,4.9,0,0,1-1.9-.89c-.7-.57-.76-1-1.32-1.17a2,2,0,0,0-1,0,5.57,5.57,0,0,0-1.76.84c-.5.31-.83.5-1.17.72" style="fill:none;stroke:#fff;stroke-miterlimit:10;stroke-width:2px"/><path d="M48.75,26.06h.07a4.63,4.63,0,0,0,2-.44,4,4,0,0,0,1.74-2,10.07,10.07,0,0,0,.65-3.28,20.63,20.63,0,0,0,.07-3.24A5.45,5.45,0,0,0,53,15.47a4.16,4.16,0,0,0-1.31-1.66,4.65,4.65,0,0,0-5.84,0,4.16,4.16,0,0,0-1.31,1.66,5.45,5.45,0,0,0-.34,1.65,20.63,20.63,0,0,0,.07,3.24,10.07,10.07,0,0,0,.65,3.28,4,4,0,0,0,1.74,2A4.79,4.79,0,0,0,48.75,26.06Z" style="fill:none;stroke:#fff;stroke-miterlimit:10;stroke-width:2px"/><path d="M32.33,32.5a6.45,6.45,0,0,1-2.15-.35,6.81,6.81,0,0,1-2.6-1.21c-1-.79-1-1.37-1.8-1.6a2.84,2.84,0,0,0-1.42,0A7.08,7.08,0,0,0,22,30.49c-1,.61-1.53.91-2.31,1.47a7.82,7.82,0,0,0-2,1.65,10.54,10.54,0,0,0-.89,3.21c-.32,1.9-.59,4.3-.81,6.55-.18,2.08-.34,4-.43,5.32-.24,3.36,0,4.06.25,4.54.91,1.6,2.84,1.6,6,1.71l10.55,0,10.56,0c3.11-.11,5-.11,6-1.71.27-.48.48-1.18.24-4.54-.08-1.29-.24-3.24-.43-5.32-.21-2.25-.48-4.65-.81-6.55A10.62,10.62,0,0,0,47,33.61,8,8,0,0,0,45,32c-.78-.56-1.29-.86-2.31-1.47a7.26,7.26,0,0,0-2.39-1.15,2.88,2.88,0,0,0-1.43,0c-.76.23-.84.81-1.8,1.6a6.77,6.77,0,0,1-2.59,1.21A6.51,6.51,0,0,1,32.33,32.5Z" style="fill:none;stroke:#fff;stroke-miterlimit:10;stroke-width:3px"/></g></svg>