<svg xmlns="http://www.w3.org/2000/svg" viewBox="0 0 64 64"><title>PDF</title><g id="workinq_status" data-name="workinq status"><path d="M32.33,19l-.08-16.9c0-1.52,21,19.55,21,19.55l-2.62,0-8.62,0-6.43,0A3,3,0,0,1,32.33,19Z" style="fill:none;stroke:#fff;stroke-linejoin:round;stroke-width:2.74310017846915px"/></g><g id="pdf"><path d="M53.33,22.87V56.49a4,4,0,0,1-4,4H14.71a4,4,0,0,1-4-4V53.33" style="fill:none;stroke:#fff;stroke-miterlimit:10;stroke-width:2.66666666666667px"/><path d="M10.67,30.48V6.87a5,5,0,0,1,5-5H31.53a2.94,2.94,0,0,1,2.95,3" style="fill:none;stroke:#fff;stroke-miterlimit:10;stroke-width:2.66666666666667px"/><rect x="6.4" y="30.48" width="31.2" height="23.42" rx="6" style="fill:none;stroke:#fff;stroke-linecap:round;stroke-miterlimit:10;stroke-width:3.1920001029968277px"/><path d="M12.1,37.31h1.18v9.15H12.1Zm.61,4.38h2.7a1.2,1.2,0,0,0,.68-.19,1.33,1.33,0,0,0,.45-.56,2.21,2.21,0,0,0,0-1.65,1.33,1.33,0,0,0-.45-.56,1.21,1.21,0,0,0-.68-.2h-2.7V37.31h2.66a2.51,2.51,0,0,1,1.33.35,2.33,2.33,0,0,1,.9,1,3.54,3.54,0,0,1,0,2.94,2.37,2.37,0,0,1-.9,1,2.51,2.51,0,0,1-1.33.34H12.71Z" style="fill:#fff;stroke:#fff;stroke-miterlimit:10;stroke-width:0.5px"/><path d="M19.52,37.31H20.7v9.15H19.52Zm.8,7.93h1.91a1.93,1.93,0,0,0,1.45-.53,2,2,0,0,0,.52-1.48V40.54a2,2,0,0,0-.52-1.48,1.93,1.93,0,0,0-1.45-.53H20.32V37.31H22.2a3.61,3.61,0,0,1,1.74.39A2.53,2.53,0,0,1,25,38.82a3.85,3.85,0,0,1,.38,1.77v2.59A3.93,3.93,0,0,1,25,45a2.51,2.51,0,0,1-1.1,1.11,3.68,3.68,0,0,1-1.75.39H20.32Z" style="fill:#fff;stroke:#fff;stroke-miterlimit:10;stroke-width:0.5px"/><path d="M27.34,37.31h1.18v9.15H27.34Zm.58,0h4.74v1.22H27.92Zm0,4.08H32v1.22h-4.1Z" style="fill:#fff;stroke:#fff;stroke-miterlimit:10;stroke-width:0.5px"/></g></svg>