<svg xmlns="http://www.w3.org/2000/svg" viewBox="0 0 57.99 57.66"><title>Ресурс 20</title><g id="Шар_2" data-name="Шар 2"><g id="many"><path d="M18.34,52,9.88,56.17,1.5,38.85,10,34.67l1.43,2.95Z" style="fill:none;stroke:#fff;stroke-linecap:round;stroke-linejoin:round;stroke-width:2.99165345805658px"/><path d="M17.27,48.22l20.43-.11a13.8,13.8,0,0,0,2.24-.41,9.72,9.72,0,0,0,1.72-.61A7.37,7.37,0,0,0,43.31,46L55.4,33.17a3.77,3.77,0,0,0-.31-5.6A4.28,4.28,0,0,0,52,26.66a5.2,5.2,0,0,0-3,1.39c-2.59,2.25-5.66,5.56-6.7,6.64-2.54,2.66-3.82,4-4.93,4.23-.8.19-1.21.08-7.86-.07h-.47l-3-.06s1.55,0,4.63,0h5A4.21,4.21,0,0,0,40,34.65v-.3a4.21,4.21,0,0,0-4.29-4.09H21.61a8.81,8.81,0,0,0-2.13.12,9.94,9.94,0,0,0-1.82.54c-.67.27-3.15,2.45-6.14,5.79" style="fill:none;stroke:#fff;stroke-linecap:round;stroke-linejoin:round;stroke-width:2.99678856687813px"/><rect x="20.22" y="21.78" width="18.78" height="4.71" style="fill:none;stroke:#fff;stroke-miterlimit:10;stroke-width:2px"/><rect x="20.22" y="16.13" width="18.78" height="4.71" style="fill:none;stroke:#fff;stroke-miterlimit:10;stroke-width:2px"/><rect x="20.22" y="10.48" width="18.78" height="4.71" style="fill:none;stroke:#fff;stroke-miterlimit:10;stroke-width:2px"/><polygon points="20.64 5.8 38.98 9.31 39.96 4.67 21.63 1.17 20.64 5.8" style="fill:none;stroke:#fff;stroke-miterlimit:10;stroke-width:2px"/></g></g></svg>