<svg xmlns="http://www.w3.org/2000/svg" viewBox="0 0 192 192"><title>SickList</title><g id="SickList"><path d="M169.35,160l-147-.81C14.4,159.14,8,151.88,8,143l.23-95.91C8.25,38.15,14.71,31,22.65,31l147,.81C177.6,31.86,184,39.12,184,48l-.23,95.91C183.75,152.85,177.29,160,169.35,160Z" style="fill:none;stroke:#fff;stroke-miterlimit:10;stroke-width:8px"/><path d="M71,35l0-15.68C71,12.76,79.48,7.44,89.84,7.5l11.31.06C111.51,7.62,120,13,120,19.57L120,35" style="fill:none;stroke:#fff;stroke-miterlimit:10;stroke-width:8px"/><line x1="95.5" y1="72" x2="95.5" y2="120" style="fill:none;stroke:#fff;stroke-linejoin:round;stroke-width:8px"/><line x1="120" y1="96.5" x2="72" y2="96.5" style="fill:none;stroke:#fff;stroke-linejoin:round;stroke-width:8px"/><circle cx="96" cy="96" r="40" style="fill:none;stroke:#fff;stroke-miterlimit:10;stroke-width:8px"/></g></svg>